<?xml version="1.0" encoding="utf-8"?>
<!-- Generator: Adobe Illustrator 23.1.0, SVG Export Plug-In . SVG Version: 6.00 Build 0)  -->
<svg version="1.1" id="Capa_1" xmlns="http://www.w3.org/2000/svg" xmlns:xlink="http://www.w3.org/1999/xlink" x="0px" y="0px"
	 viewBox="0 0 582 582" style="enable-background:new 0 0 582 582;" xml:space="preserve">
<style type="text/css">
	.st0{fill-rule:evenodd;clip-rule:evenodd;fill:#3EC7BF;}
</style>
<path class="st0" d="M291,0c160.7,0,291,130.3,291,291S451.7,582,291,582S0,451.7,0,291S130.3,0,291,0z M355.9,106.4l-198.4,197
	c-2.9,2.8-0.9,7.7,3.2,7.7h135c3.7,0,5.8,4.2,3.7,7.2l-105.8,146c-3.2,4.4,2.7,9.7,6.8,6l223.6-208.7c3-2.8,1-7.8-3.1-7.8H293.2
	c-3.4,0-5.6-3.7-4-6.7L363,111.8C365.5,107.2,359.6,102.7,355.9,106.4z"/>
</svg>
