<?xml version="1.0" encoding="utf-8"?>
<!-- Generator: Adobe Illustrator 23.1.0, SVG Export Plug-In . SVG Version: 6.00 Build 0)  -->
<svg version="1.1" id="Capa_1" xmlns="http://www.w3.org/2000/svg" xmlns:xlink="http://www.w3.org/1999/xlink" x="0px" y="0px"
	 viewBox="0 0 282 282" style="enable-background:new 0 0 282 282;" xml:space="preserve">
<style type="text/css">
	.st0{fill:#7C65C6;}
</style>
<g>
	<path class="st0" d="M129.5,3.6c7-4,16-4,23,0c35,19.8,70,39.5,105,59.3c6.6,3.7,11,11,10.9,18.6v119c0,7.9-4.8,15.4-11.7,19
		c-34.9,19.7-69.7,39.4-104.6,59c-7.1,4.1-16.4,3.8-23.2-0.6c-10.5-6.1-20.9-12.1-31.4-18.1c-2.1-1.3-4.5-2.3-6.1-4.4
		c1.3-1.8,3.7-2,5.7-2.8c4.4-1.4,8.4-3.6,12.4-5.8c1-0.7,2.3-0.4,3.2,0.2c8.9,5.1,17.8,10.4,26.8,15.5c1.9,1.1,3.9-0.4,5.5-1.3
		c34.2-19.3,68.5-38.6,102.7-58c1.3-0.6,2-2,1.9-3.3c0-39.2,0-78.5,0-117.7c0.1-1.6-0.8-3-2.2-3.7C212.5,58.9,177.8,39.3,143,19.7
		c-1.2-0.8-2.9-0.8-4.1,0C104.2,39.3,69.5,58.9,34.7,78.5c-1.4,0.6-2.4,2.1-2.2,3.7c0,39.2,0,78.5,0,117.7c-0.1,1.4,0.6,2.7,1.9,3.3
		c9.3,5.3,18.6,10.5,27.8,15.7c5.2,2.8,11.6,4.5,17.4,2.3c5.1-1.8,8.6-7,8.5-12.4c0-39,0-78,0-117c-0.1-1.7,1.5-3.2,3.2-3
		c4.5,0,8.9-0.1,13.4,0c1.9,0,3.1,1.8,2.9,3.6c0,39.3,0,78.5,0,117.8c0,10.5-4.3,21.9-14,27c-11.9,6.2-26.7,4.9-38.4-1.1
		c-10.2-5.1-19.9-11.1-29.9-16.6c-7-3.6-11.8-11.1-11.7-19v-119c-0.1-7.7,4.5-15.2,11.3-18.8C59.8,43,94.6,23.3,129.5,3.6z"/>
	<path class="st0" d="M159.9,86c15.2-1,31.5-0.6,45.2,6.9c10.6,5.7,16.5,17.8,16.7,29.6c-0.3,1.6-2,2.5-3.5,2.4
		c-4.4,0-8.8,0.1-13.2,0c-1.9,0.1-3-1.7-3.2-3.3c-1.3-5.6-4.3-11.2-9.6-13.9c-8.1-4.1-17.6-3.9-26.5-3.8c-6.5,0.3-13.4,0.9-18.9,4.7
		c-4.2,2.9-5.5,8.7-4,13.4c1.4,3.4,5.3,4.5,8.5,5.5c18.3,4.8,37.8,4.3,55.7,10.6c7.4,2.6,14.7,7.6,17.3,15.4
		c3.3,10.4,1.9,22.9-5.6,31.3c-6,6.9-14.8,10.7-23.6,12.7c-11.6,2.6-23.7,2.7-35.6,1.5c-11.1-1.3-22.7-4.2-31.3-11.8
		c-7.3-6.4-10.9-16.3-10.6-25.9c0.1-1.6,1.7-2.7,3.2-2.6c4.4,0,8.9,0,13.3,0c1.8-0.1,3.1,1.4,3.2,3.1c0.8,5.4,2.8,11,7.5,14.2
		c9,5.8,20.4,5.4,30.7,5.6c8.6-0.4,18.2-0.5,25.2-6.2c3.7-3.2,4.8-8.6,3.8-13.3c-1.1-3.9-5.2-5.8-8.7-6.9
		c-18.1-5.7-37.7-3.6-55.7-10.1c-7.3-2.6-14.3-7.4-17.1-14.9c-3.9-10.6-2.1-23.7,6.1-31.8C137.4,90.2,148.9,87.1,159.9,86L159.9,86z
		"/>
</g>
</svg>
