<?xml version="1.0" encoding="utf-8"?>
<!-- Generator: Adobe Illustrator 23.1.0, SVG Export Plug-In . SVG Version: 6.00 Build 0)  -->
<svg version="1.1" id="Capa_1" xmlns="http://www.w3.org/2000/svg" xmlns:xlink="http://www.w3.org/1999/xlink" x="0px" y="0px"
	 viewBox="0 0 24 24" style="enable-background:new 0 0 24 24;" xml:space="preserve">
<style type="text/css">
	.st0{clip-path:url(#SVGID_2_);}
	.st1{fill:#353535;}
</style>
<g>
	<defs>
		<rect id="SVGID_1_" width="24" height="24"/>
	</defs>
	<clipPath id="SVGID_2_">
		<use xlink:href="#SVGID_1_"  style="overflow:visible;"/>
	</clipPath>
	<g class="st0">
		<path class="st1" d="M11.2,0c-0.1,0-0.2,0-0.4,0C7.4,0.3,4.2,2.2,2.2,5c-1.1,1.6-1.8,3.4-2.1,5.2C0,10.9,0,11.1,0,12
			c0,0.9,0,1.1,0.1,1.7C0.8,18.3,4,22,8.3,23.4c0.8,0.3,1.6,0.4,2.5,0.5c0.4,0,1.9,0,2.3,0c1.6-0.2,3-0.6,4.3-1.3
			c0.2-0.1,0.2-0.1,0.2-0.2c0,0-0.9-1.2-2-2.6l-1.9-2.6l-2.4-3.6c-1.3-2-2.4-3.6-2.4-3.6c0,0,0,1.6,0,3.5c0,3.4,0,3.5-0.1,3.6
			c-0.1,0.1-0.1,0.2-0.2,0.2c-0.1,0-0.1,0-0.5,0H7.8l-0.1-0.1c-0.1,0-0.1-0.1-0.2-0.2l0-0.1l0-4.7l0-4.7l0.1-0.1
			c0,0,0.1-0.1,0.2-0.1c0.1,0,0.1-0.1,0.5-0.1c0.5,0,0.6,0,0.7,0.2c0,0,1.3,2,2.9,4.4c1.6,2.4,3.7,5.6,4.7,7.2l1.9,2.9l0.1-0.1
			c0.9-0.6,1.8-1.3,2.5-2.2c1.5-1.7,2.5-3.9,2.8-6.1C24,13.1,24,12.9,24,12c0-0.9,0-1.1-0.1-1.7C23.2,5.7,20,2,15.7,0.6
			c-0.8-0.2-1.6-0.4-2.5-0.5C13,0,11.4,0,11.2,0z M16.1,7.3c0.1,0.1,0.2,0.2,0.2,0.3c0,0.1,0,1.4,0,4.3l0,4.2l-0.7-1.1l-0.7-1.1
			v-3.1c0-2,0-3.1,0-3.2c0-0.1,0.1-0.2,0.2-0.3c0.1,0,0.1-0.1,0.5-0.1C16,7.2,16,7.2,16.1,7.3z"/>
	</g>
</g>
</svg>
